<?xml version="1.0" standalone="no"?>
<!DOCTYPE svg PUBLIC "-//W3C//DTD SVG 20010904//EN"
 "http://www.w3.org/TR/2001/REC-SVG-20010904/DTD/svg10.dtd">
<svg version="1.0" xmlns="http://www.w3.org/2000/svg"
 width="300.000000pt" height="150.000000pt" viewBox="0 100.00000 300.000000 100.000000"
 preserveAspectRatio="xMidYMid meet">
<metadata>
Created by potrace 1.10, written by Peter Selinger 2001-2011
</metadata>
<g transform="translate(0.000000,300.000000) scale(0.100000,-0.100000)"
fill="#000000" stroke="none">
<path d="M384 1926 c-159 -36 -240 -124 -251 -270 -14 -185 90 -309 285 -336
177 -25 338 41 396 163 64 134 30 299 -77 381 -79 60 -237 88 -353 62z m236
-39 c65 -18 130 -65 163 -119 36 -58 39 -205 7 -269 -22 -43 -82 -109 -103
-113 -7 -2 -39 -11 -72 -21 -85 -25 -186 -25 -262 1 -82 28 -124 57 -159 112
-24 39 -29 58 -32 133 -5 94 10 142 60 200 25 28 95 67 143 80 29 8 224 5 255
-4z"/>
<path d="M405 1816 c-133 -61 -156 -248 -44 -352 96 -89 240 -57 305 68 19 37
17 151 -3 191 -33 65 -117 118 -184 116 -13 0 -46 -11 -74 -23z m151 -25 c73
-33 112 -110 100 -193 -14 -95 -74 -148 -166 -148 -73 0 -118 25 -147 80 -42
79 -23 198 39 241 58 41 113 48 174 20z"/>
<path d="M1792 1925 c-161 -36 -246 -139 -246 -300 0 -66 5 -90 28 -137 61
-128 205 -188 405 -167 46 4 84 9 86 11 1 2 6 34 10 72 l7 69 -24 -8 c-12 -4
-66 -9 -118 -12 -83 -4 -99 -2 -128 16 -68 43 -98 137 -68 216 36 93 133 138
248 115 33 -6 66 -14 74 -17 10 -4 12 4 8 34 -12 88 -15 101 -28 106 -37 14
-195 16 -254 2z m236 -32 c6 -3 12 -18 12 -35 l0 -29 -67 6 c-60 6 -76 4 -136
-20 -37 -15 -66 -30 -63 -33 3 -2 -5 -13 -18 -23 -27 -21 -56 -95 -52 -131 13
-106 42 -155 115 -192 30 -16 178 -25 199 -12 16 10 30 -10 25 -36 -6 -34 -38
-42 -148 -39 -113 4 -125 5 -125 13 0 4 -7 5 -15 2 -8 -4 -15 -1 -15 5 0 6 -6
8 -14 5 -9 -3 -29 9 -49 30 -19 19 -37 33 -39 31 -2 -3 -18 23 -34 57 -52 109
-34 259 39 324 35 32 99 65 137 71 13 2 27 7 30 9 6 6 200 3 218 -3z"/>
<path d="M940 1631 l0 -301 90 0 90 0 0 238 0 238 73 -4 c81 -5 107 -20 107
-64 0 -50 -55 -85 -120 -76 -17 3 -30 2 -30 -1 1 -3 30 -78 65 -166 l64 -160
101 -3 100 -3 -65 132 c-37 72 -65 132 -63 133 50 23 88 50 106 77 20 29 23
44 20 96 -5 73 -25 106 -84 137 -35 19 -60 21 -246 24 l-208 4 0 -301z m451
241 c32 -21 52 -42 43 -42 -5 0 -3 -5 4 -12 7 -7 12 -35 12 -63 0 -58 -15 -80
-77 -119 -28 -17 -43 -33 -43 -46 0 -12 20 -60 44 -109 69 -139 70 -132 -10
-128 -48 2 -69 7 -72 17 -11 35 -73 197 -82 212 -17 30 -12 48 15 48 37 0 105
69 105 107 0 37 -36 80 -76 92 -45 13 -119 12 -138 -2 -24 -17 -24 -25 -25
-262 l-1 -210 -60 3 -60 4 0 264 0 265 199 -1 c166 -1 203 -4 222 -18z"/>
<path d="M2305 1783 c-37 -82 -101 -214 -142 -295 -40 -81 -73 -151 -73 -155
0 -5 46 -7 102 -6 l101 1 35 86 34 86 112 0 111 0 31 -86 30 -85 102 -2 c65
-1 101 2 98 8 -64 146 -154 360 -196 463 l-54 132 -111 0 -112 0 -68 -147z
m318 7 c21 -52 70 -168 108 -258 38 -90 69 -165 69 -168 0 -2 -31 -4 -68 -4
l-68 0 -23 64 c-37 105 -31 102 -168 97 -121 -3 -143 -10 -143 -42 0 -11 -4
-19 -8 -19 -5 0 -9 -6 -9 -14 0 -7 -10 -29 -22 -49 -21 -34 -24 -35 -86 -39
-36 -1 -65 1 -65 5 0 11 10 32 125 272 50 105 97 205 105 223 l13 33 101 -3
100 -3 39 -95z"/>
<path d="M2457 1802 c-8 -9 -27 -50 -42 -90 -37 -95 -32 -105 61 -113 105 -8
114 15 54 147 -30 66 -50 82 -73 56z m93 -178 c0 -1 -31 -2 -70 -2 -38 -1 -70
0 -70 3 0 5 29 77 55 139 l17 40 34 -90 c18 -49 34 -89 34 -90z"/>
<path d="M2450 1681 c0 -13 29 -41 42 -41 7 0 1 11 -12 25 -26 27 -30 30 -30
16z"/>
<path d="M2140 1723 c-112 -17 -236 -53 -329 -96 -51 -24 -61 -31 -44 -34 12
-3 38 3 58 11 19 9 50 23 69 31 19 8 40 15 48 15 8 0 18 4 23 9 13 11 140 40
203 45 26 3 41 2 35 -1 -7 -2 -13 -11 -13 -18 0 -7 -11 -36 -25 -63 -14 -28
-25 -55 -25 -60 0 -6 -6 -15 -14 -19 -8 -4 -15 -11 -15 -16 0 -4 -3 -21 -6
-38 -17 -76 7 -35 117 199 11 23 19 44 17 46 -2 1 -47 -3 -99 -11z"/>
<path d="M1770 1545 c0 -16 50 -45 85 -51 39 -5 137 5 192 22 19 5 21 3 16
-18 -5 -19 -3 -21 8 -10 21 20 -2 48 -37 44 -126 -12 -207 -11 -227 3 -21 15
-37 19 -37 10z"/>
<path d="M1503 1452 l-42 -28 19 -29 20 -30 0 27 c0 17 11 35 30 51 53 45 36
51 -27 9z"/>
<path d="M2523 1394 c-7 -48 -14 -88 -17 -91 -2 -2 -32 16 -66 41 -34 25 -73
46 -86 46 -13 0 -24 -2 -24 -4 0 -3 27 -19 61 -37 33 -18 71 -45 84 -61 13
-15 28 -28 34 -28 12 0 41 126 41 179 0 70 -15 45 -27 -45z"/>
<path d="M1659 1307 c-121 -54 -152 -68 -249 -116 -58 -28 -123 -62 -145 -75
-22 -14 -56 -33 -75 -43 -90 -47 -126 -69 -133 -81 -5 -7 -12 -10 -17 -7 -5 3
-11 1 -15 -5 -3 -5 -11 -10 -17 -10 -5 0 65 74 156 165 91 91 166 167 166 170
0 18 -35 -10 -151 -122 -126 -123 -327 -343 -313 -343 4 0 30 18 58 39 152
116 570 340 790 423 36 14 37 15 14 20 -13 2 -44 -4 -69 -15z"/>
</g>
</svg>
